<?xml version="1.0" standalone="no"?>
<!DOCTYPE svg PUBLIC "-//W3C//DTD SVG 20010904//EN"
 "http://www.w3.org/TR/2001/REC-SVG-20010904/DTD/svg10.dtd">
<svg version="1.0" xmlns="http://www.w3.org/2000/svg"
 width="392.000000pt" height="413.000000pt" viewBox="0 0 392.000000 413.000000"
 preserveAspectRatio="xMidYMid meet">

<g transform="translate(0.000000,413.000000) scale(0.100000,-0.100000)"
fill="#000000" stroke="none">
<path d="M1575 3916 c-165 -78 -351 -161 -413 -186 l-112 -43 2 -761 3 -761
105 0 105 0 3 798 c1 438 6 797 11 797 7 0 118 -49 229 -101 l42 -20 0 -86 c0
-77 2 -84 18 -78 115 44 191 58 327 59 126 0 150 -3 235 -28 52 -16 100 -31
107 -33 9 -4 13 19 15 83 l3 88 132 60 c118 54 153 76 124 76 -9 0 -87 36
-439 206 -85 41 -163 74 -175 73 -12 0 -157 -65 -322 -143z"/>
<path d="M685 3546 c-44 -18 -90 -38 -102 -45 l-23 -12 0 -945 0 -945 108 3
107 3 3 979 c1 539 -1 983 -5 987 -5 3 -44 -8 -88 -25z"/>
<path d="M1670 3284 c-25 -7 -64 -21 -88 -30 l-42 -16 2 -256 3 -257 105 0
105 0 3 288 2 287 -22 -1 c-13 -1 -43 -7 -68 -15z"/>
</g>
</svg>
